<svg width="45" height="42" viewBox="0 0 45 42" fill="none" xmlns="http://www.w3.org/2000/svg">
<path d="M42.3203 5H2.67985C2.2097 5 1.7797 5.20139 1.48408 5.50391C1.18845 5.79945 1.00016 6.22264 1.00016 6.68624V35.5433C0.993609 36.0003 1.18845 36.43 1.49063 36.7325C1.78625 37.0347 2.21634 37.2295 2.67985 37.2295H42.3203C42.7773 37.2295 43.2073 37.0347 43.5095 36.7325C43.812 36.43 44 36.0003 44 35.5433V6.68624C44 6.22264 43.812 5.79945 43.5095 5.50391C43.214 5.20139 42.7838 5 42.3203 5ZM41.467 9.52004V34.6965H3.52658V9.5082L20.3434 24.4909H20.3503C20.9549 25.0286 21.7275 25.3108 22.4936 25.3108C22.7623 25.3108 23.0244 25.2636 23.2862 25.1966H23.367L23.5687 25.1225C23.9581 24.9883 24.321 24.7731 24.6434 24.491C27.4957 21.9527 34.3808 15.8196 39.0113 11.6956L41.467 9.52004ZM39.8703 7.54288C35.7397 11.2227 26.4076 19.5352 22.9637 22.6029C22.8898 22.6635 22.8091 22.7105 22.7288 22.7374C22.6546 22.7643 22.5742 22.7778 22.4935 22.7778C22.3256 22.7778 22.1641 22.724 22.023 22.5963L5.11212 7.53297H25.04L39.8703 7.54288Z" fill="white"/>
</svg>
