<svg width="112" height="119" viewBox="0 0 112 119" fill="none" xmlns="http://www.w3.org/2000/svg">
<path d="M105.265 19H6.86967C5.70268 19 4.63533 19.4999 3.90153 20.2508C3.16773 20.9844 2.70035 22.0348 2.70035 23.1856V94.8145C2.68409 95.949 3.16773 97.0155 3.91779 97.7664C4.65159 98.5165 5.71915 99.0001 6.86967 99.0001H105.265C106.4 99.0001 107.467 98.5165 108.217 97.7664C108.968 97.0155 109.435 95.949 109.435 94.8145V23.1856C109.435 22.0348 108.968 20.9844 108.217 20.2508C107.484 19.4999 106.416 19 105.265 19ZM103.147 30.2196V92.7128H8.97143V30.1903L50.7143 67.3804H50.7314C52.2321 68.715 54.1498 69.4154 56.0514 69.4154C56.7183 69.4154 57.3689 69.2983 58.0187 69.1319H58.2193L58.72 68.9481C59.6867 68.6149 60.5874 68.0808 61.3877 67.3806C68.4677 61.0801 85.5577 45.8565 97.0517 35.6198L103.147 30.2196ZM99.1839 25.3119C88.9309 34.4461 65.7668 55.0792 57.2182 62.6939C57.035 62.8444 56.8346 62.9611 56.6351 63.0278C56.451 63.0945 56.2515 63.1281 56.0512 63.1281C55.6343 63.1281 55.2336 62.9945 54.8834 62.6776L12.9071 25.2873H62.3721L99.1839 25.3119Z" fill="#29318A"/>
</svg>
