<svg width="112" height="119" viewBox="0 0 112 119" fill="none" xmlns="http://www.w3.org/2000/svg">
<path d="M97.4202 5.86914H37.4243C36.6872 5.86914 35.9802 6.16197 35.459 6.68321L12.0724 30.0698C11.5511 30.591 11.2583 31.298 11.2583 32.0351V110.097C11.2583 111.632 12.5027 112.877 14.0377 112.877H97.4202C98.9552 112.877 100.2 111.632 100.2 110.097V8.64856C100.2 7.11353 98.9552 5.86914 97.4202 5.86914Z" stroke="#29318A" stroke-width="6.94854"/>
<line x1="30.7146" y1="55.8983" x2="83.5235" y2="55.8983" stroke="#29318A" stroke-width="5.55883"/>
<line x1="30.7146" y1="72.5751" x2="83.5235" y2="72.5751" stroke="#29318A" stroke-width="5.55883"/>
<line x1="30.7146" y1="89.2509" x2="83.5235" y2="89.2509" stroke="#29318A" stroke-width="5.55883"/>
<path d="M36.2753 30.3212C36.2753 31.0407 35.7289 31.6322 35.0282 31.7034L34.8855 31.7112L14.8588 31.7112C13.683 31.7112 13.0547 30.3535 13.7677 29.4604L13.8404 29.375L33.8684 7.82717C34.7281 6.90273 36.2751 7.51075 36.2752 8.77326L36.2753 30.3212Z" fill="#29318A" stroke="#29318A" stroke-width="2.77941"/>
</svg>
